:SAMPLES-PER-SECOND 30
:FULLY-SPECIFIED
:DEGREES
265
root  -49.5684 38.6607 3.77099 -167.361 -86.1406 159.897
RightUpLeg  16.5669 -0.496702 -1.76636
RightLeg  19.7237 1.08109 0.0954522
RightFoot  -23.5349 0.111015 2.48592
RightToes  -6.40286e-010 0 -3.6325e-017
Spine  2.26067 3.57477 8.18706
Spine1  8.80156 6.26641 -9.35889
HEad  -13.8192 -3.90717 -2.60824
LeftShoulder1  -0.510238 4.78074 -33.8117
LeftArm  -3.13805 24.5777 -33.6218
LeftForeArm  39.5934 -7.0329 -8.44923
LeftHand  -0.129321 10.1126 -1.74812
RightShoulder  -0.530924 -5.08768 26.6071
RightArm  20.5126 19.453 50.0147
RightForeArm  6.17528 22.73 4.6385
RightHand  -0.243169 7.05205 -2.61663
LeftUpLeg  -17.9196 3.43956 -1.90456
LeftLeg  13.6088 1.76517 0.590665
LeftFoot  10.2795 -0.827827 4.05818
LeftToes  1.32783e-010 1.73515e-011 1.59258e-011
266
root  -50.845 38.5626 3.91874 -145.088 -85.1897 136.851
RightUpLeg  16.8868 0.793045 -4.24897
RightLeg  24.794 1.37194 0.512328
RightFoot  -23.4185 0.615007 7.37818
RightToes  -6.40286e-010 0 -3.6325e-017
Spine  2.6054 3.65463 5.54391
Spine1  8.88265 6.3366 -9.59545
HEad  -13.5354 -3.89535 -2.63647
LeftShoulder1  -0.558964 4.89896 -33.8982
LeftArm  -4.0426 22.7382 -34.2642
LeftForeArm  39.876 -6.23506 -8.24446
LeftHand  -0.136567 9.68596 -2.13526
RightShoulder  -0.731404 -5.59405 28.379
RightArm  22.3764 17.0771 50.2173
RightForeArm  6.18592 19.8045 4.9948
RightHand  -0.287392 7.1812 -3.01367
LeftUpLeg  -17.3896 3.419 -4.39264
LeftLeg  18.2245 2.2698 1.1666
LeftFoot  6.90946 -0.903509 5.34275
LeftToes  1.32783e-010 1.73515e-011 1.59258e-011
267
root  -51.97 38.617 4.10436 -136.784 -83.9801 128.099
RightUpLeg  14.8719 0.981656 -7.08012
RightLeg  32.3166 3.24232 1.97522
RightFoot  -19.8203 0.849286 13.6217
RightToes  -6.40286e-010 0 -3.6325e-017
Spine  2.49105 3.62937 4.06725
Spine1  9.85352 6.37282 -10.7884
HEad  -13.3375 -3.37744 -3.20883
LeftShoulder1  -0.589733 4.96808 -34.0983
LeftArm  -4.18304 20.0211 -35.1997
LeftForeArm  39.2218 -5.85847 -8.33644
LeftHand  -0.0935494 9.73262 -1.04491
RightShoulder  -0.773493 -5.69934 28.5887
RightArm  20.3253 14.3327 51.8774
RightForeArm  10.0335 14.8582 6.46135
RightHand  -0.22829 6.11487 -2.62164
LeftUpLeg  -15.8564 4.24807 -6.21019
LeftLeg  19.8926 2.1785 1.19827
LeftFoot  4.13788 -0.813446 5.79592
LeftToes  1.32783e-010 1.73515e-011 1.59258e-011
268
root  -53.0001 38.7701 4.30873 -138.945 -82.5839 130.333
RightUpLeg  9.87559 1.92218 -9.19078
RightLeg  42.185 4.04172 3.64258
RightFoot  -11.281 -0.0283088 16.4778
RightToes  -6.40286e-010 0 -3.6325e-017
Spine  2.56784 3.60805 3.54146
Spine1  9.58614 6.42728 -12.0799
HEad  -12.8479 -2.42156 -4.08739
LeftShoulder1  -0.526422 4.82647 -33.6546
LeftArm  -4.15254 17.4613 -36.9034
LeftForeArm  39.0194 -6.27369 -8.51925
LeftHand  -0.114023 10.1583 -1.30245
RightShoulder  -0.818937 -5.80535 28.9599
RightArm  16.9096 11.793 53.262
RightForeArm  16.0176 9.04078 8.0178
RightHand  -0.0858319 5.23998 -1.25774
LeftUpLeg  -14.2522 5.03275 -7.29172
LeftLeg  20.126 2.79815 1.34425
LeftFoot  2.08562 -0.750749 6.2583
LeftToes  1.32783e-010 1.73515e-011 1.59258e-011
269
root  -53.9973 38.9685 4.45959 -140.279 -81.7338 131.985
RightUpLeg  3.68965 2.64039 -10.4541
RightLeg  51.7382 3.89712 4.88701
RightFoot  -0.423209 -1.2956 13.4198
RightToes  -6.40286e-010 0 -3.6325e-017
Spine  2.59124 3.40631 1.88538
Spine1  8.84723 5.71166 -10.8003
HEad  -12.6042 -1.21854 -5.39508
LeftShoulder1  -0.551783 4.86048 -34.4967
LeftArm  -2.63607 14.2226 -37.6673
LeftForeArm  38.0507 -7.4577 -8.99169
LeftHand  -0.176282 9.98681 -2.76423
RightShoulder  -0.721193 -5.56468 28.3396
RightArm  15.7623 8.75395 54.3439
RightForeArm  20.8476 4.92173 8.43689
RightHand  -0.0287251 3.56152 -0.60481
LeftUpLeg  -12.6406 4.87186 -7.8757
LeftLeg  19.7167 3.83822 1.50573
LeftFoot  0.500771 -0.66652 6.38952
LeftToes  1.32783e-010 1.73515e-011 1.59258e-011
270
root  -54.8892 39.0904 4.55812 -142.091 -81.2007 133.359
RightUpLeg  -1.00477 2.87029 -11.1826
RightLeg  58.5934 2.69064 4.27993
RightFoot  3.66028 -1.50663 11.5208
RightToes  -6.40286e-010 0 -3.6325e-017
Spine  3.55914 2.96965 -0.315631
Spine1  8.54269 4.55931 -9.12308
HEad  -13.1586 0.128448 -6.03991
LeftShoulder1  -0.605545 4.98826 -34.6182
LeftArm  0.114048 10.592 -39.0015
LeftForeArm  35.5227 -9.13781 -9.44852
LeftHand  -0.0561254 8.62977 -0.412339
RightShoulder  -0.685427 -5.44796 28.5654
RightArm  16.0361 5.71641 54.2156
RightForeArm  25.7494 3.37654 8.59545
RightHand  0.0121624 2.52363 -0.00829804
LeftUpLeg  -10.6347 4.9939 -8.08514
LeftLeg  19.7841 4.46458 1.45125
LeftFoot  -1.20132 -0.570115 6.50191
LeftToes  1.32783e-010 1.73515e-011 1.59258e-011
271
root  -55.7784 39.2875 4.63854 -143.833 -81.4801 134.814
RightUpLeg  -5.07979 2.36726 -11.1119
RightLeg  62.611 1.55958 2.75444
RightFoot  1.7459 -1.24127 10.9074
RightToes  -6.40286e-010 0 -3.6325e-017
Spine  3.42817 2.34114 -0.953837
Spine1  9.49063 3.70728 -8.3922
HEad  -14.1653 0.889684 -5.6602
LeftShoulder1  -0.540482 4.84531 -34.1188
LeftArm  2.4418 6.30773 -40.7155
LeftForeArm  33.0221 -11.1118 -9.15452
LeftHand  -0.0660991 9.39576 -0.39179
RightShoulder  -0.745565 -5.57146 29.3967
RightArm  16.503 2.6403 53.0295
RightForeArm  26.1104 3.4471 8.81962
RightHand  -0.0383912 3.35651 -0.745192
LeftUpLeg  -8.38904 4.92599 -7.76791
LeftLeg  19.086 4.58284 1.18001
LeftFoot  -2.38751 -0.504793 6.62205
LeftToes  1.32783e-010 1.73515e-011 1.59258e-011
272
root  -56.6287 39.4729 4.6884 -143.984 -82.0075 135.281
RightUpLeg  -9.30507 1.4665 -10.8107
RightLeg  63.6442 0.958354 1.56101
RightFoot  2.0147 -1.12347 9.68885
RightToes  -6.40286e-010 0 -3.6325e-017
Spine  3.58665 1.68092 -2.27283
Spine1  8.92063 2.54063 -6.66543
HEad  -14.0836 1.68481 -5.29117
LeftShoulder1  -0.503005 4.77223 -33.5103
LeftArm  5.0401 2.83591 -42.1554
LeftForeArm  28.6332 -13.8591 -8.11979
LeftHand  -0.0455354 8.89288 0.0809119
RightShoulder  -0.794775 -5.68805 29.752
RightArm  16.9563 -1.4128 51.1476
RightForeArm  26.5303 5.06963 8.76303
RightHand  0.0468962 2.96727 0.419776
LeftUpLeg  -6.76905 4.64771 -7.47207
LeftLeg  18.1609 4.54002 0.944068
LeftFoot  -3.41297 -0.432197 6.52309
LeftToes  1.32783e-010 1.73515e-011 1.59258e-011
273
root  -57.4599 39.6266 4.73489 -146.88 -82.7274 138.382
RightUpLeg  -12.6405 0.66384 -9.86171
RightLeg  61.6694 0.531016 0.529534
RightFoot  1.38531 -0.986894 8.91883
RightToes  -6.40286e-010 0 -3.6325e-017
Spine  3.6471 1.08322 -3.24575
Spine1  8.67467 1.37921 -4.64486
HEad  -14.2863 2.57454 -5.07573
LeftShoulder1  -0.510499 4.79182 -33.4604
LeftArm  7.00845 -0.267125 -43.0896
LeftForeArm  24.4071 -17.0427 -6.41746
LeftHand  -0.0408627 8.23886 0.199445
RightShoulder  -0.767555 -5.63553 29.3615
RightArm  16.9623 -5.32144 49.5334
RightForeArm  24.8736 6.67647 8.4802
RightHand  0.048935 3.24093 0.424325
LeftUpLeg  -5.27132 5.28972 -6.58702
LeftLeg  17.7082 3.55261 0.382902
LeftFoot  -4.64832 -0.347258 6.41711
LeftToes  1.32783e-010 1.73515e-011 1.59258e-011
274
root  -58.2748 39.7559 4.77198 -148.356 -83.3331 139.897
RightUpLeg  -14.6009 0.175995 -9.19021
RightLeg  56.6142 0.599594 0.575563
RightFoot  -0.128994 -0.865677 8.79147
RightToes  -6.40286e-010 0 -3.6325e-017
Spine  3.95623 0.482189 -3.80357
Spine1  8.2788 0.525979 -3.63854
HEad  -13.8813 2.91821 -4.40289
LeftShoulder1  -0.430925 4.62064 -32.474
LeftArm  8.33913 -2.86434 -43.9976
LeftForeArm  20.7086 -20.3843 -4.66671
LeftHand  -0.0137207 7.36619 1.373
RightShoulder  -0.774075 -5.65644 29.2962
RightArm  17.2643 -8.78706 47.8796
RightForeArm  23.5519 8.18169 8.15159
RightHand  0.024181 3.41248 0.0738322
LeftUpLeg  -3.4693 5.56758 -5.99609
LeftLeg  16.9239 2.85669 -0.0358086
LeftFoot  -5.61776 -0.293443 6.53818
LeftToes  1.32783e-010 1.73515e-011 1.59258e-011
